<svg xml:space="preserve" style="max-height: 500px" viewBox="77.5875 67.6 347 364" y="0px" x="0px" xmlns:xlink="http://www.w3.org/1999/xlink" xmlns="http://www.w3.org/2000/svg" id="Слой_1" version="1.1" width="347" height="364">
<g>
	<path d="M258.7,368c0,4.8-2,9.2-5.5,12c-8.6,7-17.6,5.6-17.6,5.6l-0.5-0.1c-26.8-0.1-33.5-24.6-34.2-27.4l-1-4.9l0,0&#10;&#9;&#9;c-1.5-7.5-6.4-39,14.2-48.8l-1.7-3.5c-23.1,11-18.3,43.8-16.5,52.7l-1.6,0.1c-12.4,1.1-22.2-1.2-29.2-6.7&#10;&#9;&#9;c-14.5-11.5-14.4-33.9-14.3-37.6c2.3,0.7,5.7,1.5,9.5,1.5c2.5,0,5.1-0.4,7.5-1.4c3.6-1.6,6.1-4.4,7.5-8.4l-3.7-1.3&#10;&#9;&#9;c-1,3-2.8,5-5.4,6.1c-6.1,2.7-14.6-0.3-16.2-0.9l-1-0.8c-9-8-13.8-17.1-14.4-27.2c-1.1-19,13-35.8,15.8-38.9l1.5-1.5&#10;&#9;&#9;c2.7-2.7,21.2-20,43.7-8.7l1.8-3.5c-21.2-10.6-39.2,1.6-45.9,7.3c-5.2-39,20-50.1,20.3-50.3l1.7-0.8l13.6,7.9l2-3.4l-13.6-7.9&#10;&#9;&#9;l-0.3-1.6c-5.4-28,22.5-37.9,26.2-39.1c0.2,4.6,1.5,13.9,8,19.5c3.4,3,7.8,4.5,13,4.5c1.8,0,3.6-0.2,5.6-0.5l-0.7-3.9&#10;&#9;&#9;c-6.5,1.2-11.6,0.1-15.3-3.1c-6.8-5.9-6.7-17.6-6.7-18.9l0.4-1.9c2.5-12.2,16.9-18.9,29.2-18.9c10.6,0,18.9,8.8,21.1,11.4&#10;&#9;&#9;c1.7,2.6,2.6,5.6,2.6,8.7v29h3.9v-29c0-3.9-1.1-7.6-3.4-11.1c-2.6-3-12-12.9-24.2-12.9c-13.9,0-30.2,7.7-33.1,22l-0.2,0.9l-1.2,0.4&#10;&#9;&#9;c-3.6,1.1-35.2,11.9-29.1,43.6l0.2,0.9l-1.2,0.5c-0.3,0.1-29.4,12.7-22.4,56.7l0.1,0.5l-0.5,0.5c-3,3.4-18,21.2-16.8,41.8&#10;&#9;&#9;c0.6,11.2,5.9,21.3,15.8,30l0.5,0.4l0,0.5l0,0c-0.3,3.7-1,28.7,15.7,42c7.8,6.2,18.5,8.7,31.9,7.6l2.1-0.2l0.3,1.6&#10;&#9;&#9;c0.7,3.1,8.2,30.2,37.9,30.4c0.5,0.1,1.3,0.1,2.5,0.1c3.9,0,11.1-0.9,18.1-6.6c4.4-3.6,6.9-9.1,6.9-15v-24.6h-3.9V368z"/>
	<path d="M241,205.2l39.4,38.9L233.5,291l-21.9-21.9l21.7-21.7l11.5,11.5l2.8-2.8l-14.3-14.3l-27.3,27.3l27.4,27.4l52.4-52.4&#10;&#9;&#9;L244,202.2l51-51h32.5c1,5.3,5.8,9.3,11.5,8.8c5.4-0.4,9.7-4.9,9.9-10.3c0.3-6.2-4.7-11.3-10.8-11.3c-5.3,0-9.7,3.8-10.6,8.8h-34.1&#10;&#9;&#9;l-55.2,55.2L241,205.2z M336.7,142.5c4.8-0.9,9,3.3,8.1,8.1c-0.5,2.7-2.7,4.9-5.4,5.4c-4.8,0.9-9-3.3-8.1-8.1&#10;&#9;&#9;C331.9,145.2,334,143,336.7,142.5z"/>
	<path d="M284.3,225.4l12.3-12.3c1.7,1.1,3.7,1.8,5.9,1.8c6,0,10.8-4.9,10.8-10.8s-4.9-10.8-10.8-10.8c-6,0-10.8,4.9-10.8,10.8&#10;&#9;&#9;c0,2.4,0.8,4.5,2.1,6.3l-12.3,12.3L284.3,225.4z M302.5,197.1c3.8,0,6.9,3.1,6.9,6.9s-3.1,6.9-6.9,6.9c-3.8,0-6.9-3.1-6.9-6.9&#10;&#9;&#9;S298.7,197.1,302.5,197.1z"/>
	<path d="M316.3,219.8l-17.7,17.7l2.8,2.8l16.6-16.6h30.4c0.9,5,5.3,8.8,10.6,8.8c6,0,10.8-4.9,10.8-10.8s-4.9-10.8-10.8-10.8&#10;&#9;&#9;c-5.3,0-9.7,3.8-10.6,8.8H316.3z M358.9,214.8c3.8,0,6.9,3.1,6.9,6.9s-3.1,6.9-6.9,6.9c-3.8,0-6.9-3.1-6.9-6.9&#10;&#9;&#9;S355.1,214.8,358.9,214.8z"/>
	<path d="M321.4,185.3c1,5.3,5.8,9.3,11.5,8.8c5.4-0.4,9.7-5,9.9-10.3c0.2-6.2-4.7-11.3-10.8-11.3c-5.3,0-9.7,3.8-10.6,8.8h-29.6&#10;&#9;&#9;l-30.1,30.1l2.8,2.8l28.9-28.9H321.4z M330.7,176.6c4.8-0.9,9,3.3,8.1,8.1c-0.5,2.7-2.7,4.9-5.4,5.4c-4.8,0.9-9-3.3-8.1-8.1&#10;&#9;&#9;C325.8,179.3,328,177.1,330.7,176.6z"/>
	<path d="M264.9,292.5l-2.8,2.8l30.1,30.1h29.6c0.9,5,5.3,8.8,10.6,8.8c6,0,10.8-4.9,10.8-10.8c0-6-4.9-10.8-10.8-10.8&#10;&#9;&#9;c-5.3,0-9.7,3.8-10.6,8.8h-28L264.9,292.5z M332.4,316.5c3.8,0,6.9,3.1,6.9,6.9c0,3.8-3.1,6.9-6.9,6.9c-3.8,0-6.9-3.1-6.9-6.9&#10;&#9;&#9;C325.5,319.6,328.6,316.5,332.4,316.5z"/>
	<path d="M338.4,346.7c-5.3,0-9.7,3.8-10.6,8.8h-32.5l-54.1-54.1l-2.8,2.8l55.2,55.2h34.1c0.9,5,5.3,8.8,10.6,8.8&#10;&#9;&#9;c6,0,10.8-4.9,10.8-10.8C349.2,351.6,344.4,346.7,338.4,346.7z M338.4,364.4c-3.8,0-6.9-3.1-6.9-6.9c0-3.8,3.1-6.9,6.9-6.9&#10;&#9;&#9;s6.9,3.1,6.9,6.9C345.3,361.3,342.2,364.4,338.4,364.4z"/>
	<path d="M302.9,291.9c-2.2,0-4.2,0.7-5.9,1.8l-12.3-12.3l-2.8,2.8l12.3,12.3c-1.3,1.8-2.1,3.9-2.1,6.3c0,6,4.9,10.8,10.8,10.8&#10;&#9;&#9;s10.8-4.9,10.8-10.8S308.8,291.9,302.9,291.9z M302.9,309.6c-3.8,0-6.9-3.1-6.9-6.9s3.1-6.9,6.9-6.9c3.8,0,6.9,3.1,6.9,6.9&#10;&#9;&#9;S306.7,309.6,302.9,309.6z"/>
	<path d="M359.3,274.2c-5.3,0-9.7,3.8-10.6,8.8h-30.4l-16.6-16.6l-2.8,2.8l17.7,17.7h32c0.9,5,5.3,8.8,10.6,8.8&#10;&#9;&#9;c6,0,10.8-4.9,10.8-10.8C370.1,279.1,365.2,274.2,359.3,274.2z M359.3,291.9c-3.8,0-6.9-3.1-6.9-6.9c0-3.8,3.1-6.9,6.9-6.9&#10;&#9;&#9;c3.8,0,6.9,3.1,6.9,6.9C366.1,288.8,363,291.9,359.3,291.9z"/>
</g>
</svg>