<svg version="1.1" id="Layer_1" xmlns="http://www.w3.org/2000/svg" xmlns:xlink="http://www.w3.org/1999/xlink" x="0px" y="0px"
	 width="100%" viewBox="0 0 866 650" enable-background="new 0 0 866 650" xml:space="preserve">
<path fill="#FFFFFF" opacity="1.000000" stroke="none" 
	d="
M526.000000,651.000000 
	C350.666656,651.000000 175.833328,651.000000 1.000000,651.000000 
	C1.000000,434.333344 1.000000,217.666672 1.000000,1.000000 
	C289.666656,1.000000 578.333313,1.000000 867.000000,1.000000 
	C867.000000,217.666672 867.000000,434.333344 867.000000,651.000000 
	C753.500000,651.000000 640.000000,651.000000 526.000000,651.000000 
M174.711533,227.793243 
	C171.139572,227.037415 167.593491,226.116699 163.991653,225.551132 
	C125.288185,219.473618 87.231003,251.707458 86.956856,290.899078 
	C86.831795,308.779266 92.860268,325.110107 100.034348,341.166565 
	C103.835342,349.673645 109.649979,353.361206 119.189468,352.782501 
	C131.310104,352.047272 143.501007,352.457397 155.661758,352.406433 
	C158.385208,352.395020 161.217255,352.290985 161.193436,356.315369 
	C161.148071,363.979584 161.340820,371.651398 161.016113,379.302307 
	C160.954620,380.751434 158.952179,382.118225 157.845322,383.522980 
	C156.575760,382.097290 154.444122,380.798706 154.211304,379.220123 
	C153.682770,375.636627 153.861465,371.895813 154.174652,368.255280 
	C154.525543,364.176575 152.543015,362.008179 148.886215,362.025665 
	C139.305038,362.071442 129.681610,362.091248 120.162674,363.019745 
	C114.538452,363.568390 113.916336,365.351135 116.490295,370.353729 
	C127.050217,390.877197 141.266251,408.909424 155.307373,427.475616 
	C170.617233,410.081665 184.460007,392.223724 196.361862,372.904236 
	C206.339859,356.707611 215.222183,339.995911 219.077744,321.133728 
	C221.363281,309.952484 218.535690,305.870911 207.436935,303.508514 
	C205.977966,303.197998 204.479630,302.939484 202.994125,302.907501 
	C190.507370,302.638672 178.019730,302.312653 165.531494,302.273346 
	C161.942764,302.262054 160.418335,301.262604 160.462448,297.479004 
	C160.573105,287.986969 160.360825,278.491516 160.322754,268.997223 
	C160.312119,266.346649 160.781082,263.619202 164.126831,263.665375 
	C167.434402,263.711029 167.839264,266.367645 167.838623,269.071014 
	C167.837021,275.901123 168.003174,282.733673 167.860809,289.560211 
	C167.798233,292.561279 169.021957,293.793060 171.866730,293.982117 
	C186.717499,294.969025 201.498444,294.705719 216.015045,291.037079 
	C223.565659,289.128845 224.422150,287.696899 222.667114,280.120789 
	C216.621613,254.023376 200.962692,236.543884 174.711533,227.793243 
M422.265381,352.885864 
	C430.019623,331.396332 437.773865,309.906830 445.712646,287.905914 
	C439.778107,287.905914 434.618317,288.097046 429.482025,287.832214 
	C426.534821,287.680267 425.571228,288.920380 424.685577,291.499207 
	C420.860718,302.636200 416.767242,313.680908 412.681946,325.007507 
	C412.300568,324.374176 412.032959,324.006256 411.842285,323.602081 
	C406.599792,312.487152 401.424469,301.339691 396.052246,290.287872 
	C395.398010,288.942017 393.668396,287.242188 392.480133,287.274780 
	C391.247375,287.308533 389.721985,289.048462 388.936188,290.398254 
	C387.354645,293.114746 386.193665,296.075470 384.850098,298.931122 
	C380.796173,307.547241 376.737885,316.161316 372.567963,325.016907 
	C368.310516,313.354187 364.267975,302.106323 360.033997,290.930969 
	C359.573212,289.714722 358.044647,288.109161 356.948608,288.059143 
	C350.838379,287.780273 344.708832,287.925171 338.319733,287.925171 
	C338.692566,289.304199 338.879486,290.282776 339.217957,291.205780 
	C348.078064,315.368164 356.919312,339.537567 365.900299,363.654999 
	C366.537720,365.366760 368.222015,366.688660 369.419525,368.191833 
	C370.939911,366.765411 373.014587,365.617035 373.891876,363.868042 
	C380.174164,351.343597 386.212860,338.696930 392.491974,325.752869 
	C398.756134,339.146362 404.751678,352.104187 410.932098,364.973236 
	C411.575348,366.312592 413.300018,367.923187 414.549988,367.946350 
	C415.679504,367.967316 417.310242,366.192657 417.907074,364.848816 
	C419.520721,361.215485 420.701721,357.389984 422.265381,352.885864 
M568.103333,307.212738 
	C569.579285,308.504761 571.055237,309.796753 571.891846,310.529083 
	C576.478394,306.010681 580.919312,301.635803 585.486694,297.136322 
	C575.646851,286.164307 562.833008,284.009674 548.778259,285.881805 
	C532.775208,288.013428 520.177979,299.319031 516.274658,314.970978 
	C512.087158,331.762726 517.734131,349.056976 530.455444,358.400391 
	C545.596619,369.521118 571.097778,369.853149 586.515686,359.042877 
	C587.618652,358.269501 589.029053,356.892059 589.047241,355.775146 
	C589.233704,344.346771 589.161438,332.914124 589.161438,321.433594 
	C576.709229,321.433594 564.820251,321.433594 552.842773,321.433594 
	C552.842773,327.432587 552.842773,333.150146 552.842773,339.286560 
	C558.954712,339.286560 564.704956,339.286560 570.397949,339.286560 
	C571.191040,347.156189 571.195923,347.188721 564.114075,348.253082 
	C561.980774,348.573669 559.808167,348.858643 557.660095,348.817657 
	C547.386719,348.621796 539.819763,343.492249 536.739685,334.787598 
	C533.362854,325.244263 535.942993,313.809814 542.749146,308.155396 
	C549.432312,302.603180 559.142700,302.070892 568.103333,307.212738 
M653.759216,303.721954 
	C661.239319,302.954163 667.429260,305.528076 671.913086,310.970215 
	C676.578552,306.402405 680.935120,302.137024 685.454163,297.712616 
	C679.062683,289.493103 670.291992,286.251251 660.330933,285.482422 
	C644.456421,284.257111 630.740417,288.747284 621.760498,302.450073 
	C612.564880,316.482025 611.987122,331.660675 619.935181,346.463867 
	C633.539551,371.801941 669.145569,371.037170 687.103333,358.445740 
	C687.940369,357.858856 688.866089,356.664307 688.875793,355.743500 
	C688.996399,344.325470 688.954590,332.905762 688.954590,321.423767 
	C676.442993,321.423767 664.547363,321.423767 652.511719,321.423767 
	C652.511719,327.418732 652.511719,333.137726 652.511719,339.260315 
	C658.588318,339.260315 664.356445,339.260315 670.064575,339.260315 
	C670.929016,347.216034 670.934570,347.257538 663.834656,348.204102 
	C661.371948,348.532440 658.858582,348.877472 656.395325,348.738159 
	C643.764832,348.023712 635.613342,339.833069 635.066528,327.506409 
	C634.495789,314.640594 641.299438,305.592072 653.759216,303.721954 
M289.032959,347.914215 
	C285.843842,345.130524 282.654755,342.346802 279.057709,339.207001 
	C274.374817,341.919830 269.129547,344.958405 263.949066,347.959473 
	C272.114014,368.544128 300.545135,371.611084 313.767120,361.319305 
	C317.422821,358.473755 320.482086,353.722321 321.811157,349.249878 
	C325.231293,337.740601 320.814362,327.730072 310.341705,321.656311 
	C304.756561,318.417084 298.684875,316.027893 292.926636,313.072174 
	C288.969849,311.041168 287.494263,307.519867 289.580444,305.127289 
	C292.231018,302.087402 295.628784,302.387299 298.557434,304.568024 
	C300.485504,306.003662 301.820465,308.235779 303.631104,310.357452 
	C306.093567,308.820251 308.618042,307.282013 311.103149,305.682678 
	C313.706421,304.007233 316.271912,302.273071 318.799042,300.600891 
	C311.933868,287.158875 298.026703,281.852844 283.896118,286.952637 
	C274.651550,290.289093 269.108093,298.075714 269.052155,307.885956 
	C268.983582,319.916718 275.635040,327.261322 285.968445,332.010193 
	C290.490906,334.088562 295.188843,335.868469 299.452454,338.384766 
	C301.112823,339.364685 302.862793,342.148193 302.625946,343.837311 
	C302.389099,345.526337 299.935822,347.674255 298.065704,348.177429 
	C295.499451,348.867828 292.567230,348.198029 289.032959,347.914215 
M749.549561,307.970642 
	C747.577148,311.904602 745.604736,315.838593 743.699829,319.637817 
	C738.160278,309.443909 732.745972,299.338837 727.143555,289.339172 
	C726.389771,287.993683 724.730591,286.328461 723.418335,286.263062 
	C717.020996,285.944336 710.599182,286.118866 703.562012,286.118866 
	C704.439026,287.904022 704.953979,289.079498 705.574524,290.196381 
	C714.215515,305.749207 722.936401,321.258423 731.448914,336.881134 
	C732.655518,339.095612 733.350037,341.835266 733.444031,344.362946 
	C733.708618,351.480164 733.536438,358.613617 733.536438,365.809326 
	C740.366638,365.809326 746.655090,365.809326 753.351379,365.809326 
	C753.351379,358.158051 753.212402,350.681274 753.432190,343.215088 
	C753.502380,340.828217 754.078735,338.236481 755.179871,336.134735 
	C763.281189,320.671814 771.581909,305.313385 779.790710,289.906525 
	C780.369324,288.820496 780.714844,287.610321 781.307800,286.104767 
	C775.219421,286.104767 769.709167,285.866333 764.241943,286.247101 
	C762.556702,286.364441 760.344116,287.794312 759.481079,289.270874 
	C756.047180,295.145813 753.050964,301.276581 749.549561,307.970642 
M468.186432,341.499908 
	C468.186432,349.580139 468.186432,357.660370 468.186432,365.649872 
	C475.245178,365.649872 481.630096,365.649872 487.718140,365.649872 
	C487.718140,338.948242 487.718140,312.605194 487.718140,286.418671 
	C481.070892,286.418671 474.825806,286.418671 468.186432,286.418671 
	C468.186432,304.653992 468.186432,322.576935 468.186432,341.499908 
z"/>
<path fill="#020202" opacity="1.000000" stroke="none" 
	d="
M175.102798,227.886169 
	C200.962692,236.543884 216.621613,254.023376 222.667114,280.120789 
	C224.422150,287.696899 223.565659,289.128845 216.015045,291.037079 
	C201.498444,294.705719 186.717499,294.969025 171.866730,293.982117 
	C169.021957,293.793060 167.798233,292.561279 167.860809,289.560211 
	C168.003174,282.733673 167.837021,275.901123 167.838623,269.071014 
	C167.839264,266.367645 167.434402,263.711029 164.126831,263.665375 
	C160.781082,263.619202 160.312119,266.346649 160.322754,268.997223 
	C160.360825,278.491516 160.573105,287.986969 160.462448,297.479004 
	C160.418335,301.262604 161.942764,302.262054 165.531494,302.273346 
	C178.019730,302.312653 190.507370,302.638672 202.994125,302.907501 
	C204.479630,302.939484 205.977966,303.197998 207.436935,303.508514 
	C218.535690,305.870911 221.363281,309.952484 219.077744,321.133728 
	C215.222183,339.995911 206.339859,356.707611 196.361862,372.904236 
	C184.460007,392.223724 170.617233,410.081665 155.307373,427.475616 
	C141.266251,408.909424 127.050217,390.877197 116.490295,370.353729 
	C113.916336,365.351135 114.538452,363.568390 120.162674,363.019745 
	C129.681610,362.091248 139.305038,362.071442 148.886215,362.025665 
	C152.543015,362.008179 154.525543,364.176575 154.174652,368.255280 
	C153.861465,371.895813 153.682770,375.636627 154.211304,379.220123 
	C154.444122,380.798706 156.575760,382.097290 157.845337,383.522980 
	C158.952179,382.118225 160.954620,380.751434 161.016113,379.302307 
	C161.340820,371.651398 161.148071,363.979584 161.193436,356.315369 
	C161.217255,352.290985 158.385208,352.395020 155.661758,352.406433 
	C143.501007,352.457397 131.310104,352.047272 119.189468,352.782501 
	C109.649979,353.361206 103.835342,349.673645 100.034348,341.166565 
	C92.860268,325.110107 86.831795,308.779266 86.956856,290.899078 
	C87.231003,251.707458 125.288185,219.473618 163.991653,225.551132 
	C167.593491,226.116699 171.139572,227.037415 175.102798,227.886169 
z"/>
<path fill="#040404" opacity="1.000000" stroke="none" 
	d="
M422.159851,353.263306 
	C420.701721,357.389984 419.520721,361.215485 417.907074,364.848816 
	C417.310242,366.192657 415.679504,367.967316 414.549988,367.946350 
	C413.300018,367.923187 411.575348,366.312592 410.932098,364.973236 
	C404.751678,352.104187 398.756134,339.146362 392.491974,325.752869 
	C386.212860,338.696930 380.174164,351.343597 373.891876,363.868042 
	C373.014587,365.617035 370.939911,366.765411 369.419525,368.191833 
	C368.222015,366.688660 366.537720,365.366760 365.900299,363.654999 
	C356.919312,339.537567 348.078064,315.368164 339.217957,291.205780 
	C338.879486,290.282776 338.692566,289.304199 338.319733,287.925171 
	C344.708832,287.925171 350.838379,287.780273 356.948608,288.059143 
	C358.044647,288.109161 359.573212,289.714722 360.033997,290.930969 
	C364.267975,302.106323 368.310516,313.354187 372.567963,325.016907 
	C376.737885,316.161316 380.796173,307.547241 384.850098,298.931122 
	C386.193665,296.075470 387.354645,293.114746 388.936188,290.398254 
	C389.721985,289.048462 391.247375,287.308533 392.480133,287.274780 
	C393.668396,287.242188 395.398010,288.942017 396.052246,290.287872 
	C401.424469,301.339691 406.599792,312.487152 411.842285,323.602081 
	C412.032959,324.006256 412.300568,324.374176 412.681946,325.007507 
	C416.767242,313.680908 420.860718,302.636200 424.685577,291.499207 
	C425.571228,288.920380 426.534821,287.680267 429.482025,287.832214 
	C434.618317,288.097046 439.778107,287.905914 445.712646,287.905914 
	C437.773865,309.906830 430.019623,331.396332 422.159851,353.263306 
z"/>
<path fill="#040404" opacity="1.000000" stroke="none" 
	d="
M567.788025,307.006470 
	C559.142700,302.070892 549.432312,302.603180 542.749146,308.155396 
	C535.942993,313.809814 533.362854,325.244263 536.739685,334.787598 
	C539.819763,343.492249 547.386719,348.621796 557.660095,348.817657 
	C559.808167,348.858643 561.980774,348.573669 564.114075,348.253082 
	C571.195923,347.188721 571.191040,347.156189 570.397949,339.286560 
	C564.704956,339.286560 558.954712,339.286560 552.842773,339.286560 
	C552.842773,333.150146 552.842773,327.432587 552.842773,321.433594 
	C564.820251,321.433594 576.709229,321.433594 589.161438,321.433594 
	C589.161438,332.914124 589.233704,344.346771 589.047241,355.775146 
	C589.029053,356.892059 587.618652,358.269501 586.515686,359.042877 
	C571.097778,369.853149 545.596619,369.521118 530.455444,358.400391 
	C517.734131,349.056976 512.087158,331.762726 516.274658,314.970978 
	C520.177979,299.319031 532.775208,288.013428 548.778259,285.881805 
	C562.833008,284.009674 575.646851,286.164307 585.486694,297.136322 
	C580.919312,301.635803 576.478394,306.010681 571.891846,310.529083 
	C571.055237,309.796753 569.579285,308.504761 567.788025,307.006470 
z"/>
<path fill="#050505" opacity="1.000000" stroke="none" 
	d="
M653.317017,303.772095 
	C641.299438,305.592072 634.495789,314.640594 635.066528,327.506409 
	C635.613342,339.833069 643.764832,348.023712 656.395325,348.738159 
	C658.858582,348.877472 661.371948,348.532440 663.834656,348.204102 
	C670.934570,347.257538 670.929016,347.216034 670.064575,339.260315 
	C664.356445,339.260315 658.588318,339.260315 652.511719,339.260315 
	C652.511719,333.137726 652.511719,327.418732 652.511719,321.423767 
	C664.547363,321.423767 676.442993,321.423767 688.954590,321.423767 
	C688.954590,332.905762 688.996399,344.325470 688.875793,355.743500 
	C688.866089,356.664307 687.940369,357.858856 687.103333,358.445740 
	C669.145569,371.037170 633.539551,371.801941 619.935181,346.463867 
	C611.987122,331.660675 612.564880,316.482025 621.760498,302.450073 
	C630.740417,288.747284 644.456421,284.257111 660.330933,285.482422 
	C670.291992,286.251251 679.062683,289.493103 685.454163,297.712616 
	C680.935120,302.137024 676.578552,306.402405 671.913086,310.970215 
	C667.429260,305.528076 661.239319,302.954163 653.317017,303.772095 
z"/>
<path fill="#050505" opacity="1.000000" stroke="none" 
	d="
M289.412415,348.012665 
	C292.567230,348.198029 295.499451,348.867828 298.065704,348.177429 
	C299.935822,347.674255 302.389099,345.526337 302.625946,343.837311 
	C302.862793,342.148193 301.112823,339.364685 299.452454,338.384766 
	C295.188843,335.868469 290.490906,334.088562 285.968445,332.010193 
	C275.635040,327.261322 268.983582,319.916718 269.052155,307.885956 
	C269.108093,298.075714 274.651550,290.289093 283.896118,286.952637 
	C298.026703,281.852844 311.933868,287.158875 318.799042,300.600891 
	C316.271912,302.273071 313.706421,304.007233 311.103149,305.682678 
	C308.618042,307.282013 306.093567,308.820251 303.631104,310.357452 
	C301.820465,308.235779 300.485504,306.003662 298.557434,304.568024 
	C295.628784,302.387299 292.231018,302.087402 289.580444,305.127289 
	C287.494263,307.519867 288.969849,311.041168 292.926636,313.072174 
	C298.684875,316.027893 304.756561,318.417084 310.341705,321.656311 
	C320.814362,327.730072 325.231293,337.740601 321.811157,349.249878 
	C320.482086,353.722321 317.422821,358.473755 313.767120,361.319305 
	C300.545135,371.611084 272.114014,368.544128 263.949066,347.959473 
	C269.129547,344.958405 274.374817,341.919830 279.057709,339.207001 
	C282.654755,342.346802 285.843842,345.130524 289.412415,348.012665 
z"/>
<path fill="#040404" opacity="1.000000" stroke="none" 
	d="
M749.721069,307.641602 
	C753.050964,301.276581 756.047180,295.145813 759.481079,289.270874 
	C760.344116,287.794312 762.556702,286.364441 764.241943,286.247101 
	C769.709167,285.866333 775.219421,286.104767 781.307800,286.104767 
	C780.714844,287.610321 780.369324,288.820496 779.790710,289.906525 
	C771.581909,305.313385 763.281189,320.671814 755.179871,336.134735 
	C754.078735,338.236481 753.502380,340.828217 753.432190,343.215088 
	C753.212402,350.681274 753.351379,358.158051 753.351379,365.809326 
	C746.655090,365.809326 740.366638,365.809326 733.536438,365.809326 
	C733.536438,358.613617 733.708618,351.480164 733.444031,344.362946 
	C733.350037,341.835266 732.655518,339.095612 731.448914,336.881134 
	C722.936401,321.258423 714.215515,305.749207 705.574524,290.196381 
	C704.953979,289.079498 704.439026,287.904022 703.562012,286.118866 
	C710.599182,286.118866 717.020996,285.944336 723.418335,286.263062 
	C724.730591,286.328461 726.389771,287.993683 727.143555,289.339172 
	C732.745972,299.338837 738.160278,309.443909 743.699829,319.637817 
	C745.604736,315.838593 747.577148,311.904602 749.721069,307.641602 
z"/>
<path fill="#050505" opacity="1.000000" stroke="none" 
	d="
M468.186432,340.999878 
	C468.186432,322.576935 468.186432,304.653992 468.186432,286.418671 
	C474.825806,286.418671 481.070892,286.418671 487.718140,286.418671 
	C487.718140,312.605194 487.718140,338.948242 487.718140,365.649872 
	C481.630096,365.649872 475.245178,365.649872 468.186432,365.649872 
	C468.186432,357.660370 468.186432,349.580139 468.186432,340.999878 
z"/>
</svg>